<svg xmlns="http://www.w3.org/2000/svg" xml:space="preserve" width="2000" height="69" data-id="lg_dfJ1kMfWHvmb0LFpMv" data-version="1" viewBox="0 0 2000 69"><g data-padding="20"><g transform="translate(10 1.232)scale(.96429)"><g transform="translate(443.7 399.94)"><filter id="a" width="140%" height="140%" x="-20%" y="-20%"><feGaussianBlur in="SourceAlpha"/><feOffset result="oBlur"/><feFlood flood-color="#f75cff" flood-opacity="1"/><feComposite in2="oBlur" operator="in"/><feMerge><feMergeNode/><feMergeNode in="SourceGraphic"/></feMerge></filter><g filter="url(#a)"><rect width="473.6" height="56.5" x="389.576" y="-393.75" fill="none" rx="0" ry="0"/><path fill="#fff" d="M405.606-350.3h-12.7v-35h12.7q5.6 0 9.8 2.22 4.2 2.21 6.53 6.15 2.32 3.93 2.32 9.13 0 3.93-1.32 7.15-1.33 3.23-3.79 5.54t-5.89 3.56q-3.42 1.25-7.65 1.25m-2.6-25.6v16.2h2.35q1.85 0 3.37-.48 1.51-.49 2.62-1.5 1.11-1.02 1.71-2.54.6-1.53.6-3.58 0-2.75-1.05-4.55t-2.92-2.67q-1.88-.88-4.33-.88Zm33.39 26.36q-2.5 0-4.57-1-2.08-1-3.33-2.88-1.25-1.89-1.25-4.57 0-2.32 1.14-4.07t3.36-2.86q2.23-1.12 5.52-1.52 3.28-.4 7.58-.05l.05 5.95q-1.7-.37-3.25-.46t-2.75.14q-1.2.22-1.9.79-.7.56-.7 1.51 0 1.02.83 1.52.82.5 2.15.5 1.2 0 2.16-.4t1.54-1.23q.57-.84.57-2.17v-5.3q0-1.2-.47-2.13-.48-.94-1.6-1.48-1.13-.54-3.13-.54t-3.96.6-3.44 1.7l-2.45-6.65q2.6-1.57 5.63-2.36 3.02-.79 5.97-.79 3.73 0 6.65 1.19 2.93 1.19 4.62 3.73 1.68 2.53 1.68 6.58v15.5h-8.5v-2.55q-1.2 1.58-3.3 2.44t-4.85.86m32.58-.75h-10v-26h10Zm-5-29.35q-2.33 0-4.04-1.41t-1.71-3.89q0-2.47 1.71-3.88 1.71-1.42 4.04-1.42 2.32 0 4.04 1.42 1.71 1.41 1.71 3.88 0 2.48-1.71 3.89-1.72 1.41-4.04 1.41m21.25 29.34h-10v-36h10Zm11.15 11.15q-2.03 0-3.94-.38-1.91-.39-3.44-1.17l2.08-8.3q.82.4 1.85.65 1.02.25 1.95.25 1.12 0 2.06-.41t1.24-1.49l.1-.4-10-25.9h10.8l4.85 16.35 4.7-16.35h10.55l-10.5 27.85q-1.38 3.43-3.29 5.47-1.91 2.03-4.21 2.93t-4.8.9m47.65-11.15h-10.1v-35h14.95q4.02 0 7.17 1.43 3.15 1.42 4.97 4.14 1.81 2.71 1.81 6.53 0 3.85-1.68 6.55-1.67 2.7-4.85 4.13-3.17 1.42-7.67 1.42h-4.6Zm0-26.4v7.25h4.2q2.1 0 3.3-.78 1.2-.79 1.2-2.82 0-2.1-1.25-2.87-1.25-.78-3.2-.78Zm32.85 26.41h-10v-26h10Zm-5-29.35q-2.33 0-4.04-1.41t-1.71-3.89q0-2.47 1.71-3.88 1.71-1.42 4.04-1.42 2.32 0 4.04 1.42 1.71 1.41 1.71 3.88 0 2.48-1.71 3.89-1.72 1.41-4.04 1.41m23.85 30.09q-4.15 0-7.44-1.8t-5.2-4.91-1.91-7.04q0-2.92 1.12-5.42 1.13-2.5 3.15-4.38 2.03-1.87 4.73-2.91t5.85-1.04q3.12 0 5.82.88 2.7.87 4.83 2.57l-4.25 7.35q-1.28-1.2-2.71-1.75-1.44-.55-2.99-.55-1.8 0-3.08.62-1.27.61-1.95 1.78-.67 1.18-.67 2.85 0 2.48 1.52 3.87 1.53 1.38 4.23 1.38 1.72 0 3.29-.65 1.56-.65 3.01-2l3.8 7.55q-2.25 1.68-5.24 2.64t-5.91.96m24.87-.75h-10v-36h10v17.4l6.3-7.4h11.5l-9.05 10.85 9.5 15.15h-11.75l-5-8.6-1.5 1.7Zm31.95.76q-3.6 0-5.93-1.37-2.34-1.38-3.48-3.94t-1.14-6.14v-15.3h10v13.95q0 1.8.85 2.8t2.6 1q1.13 0 1.93-.48.8-.49 1.21-1.34t.41-1.98v-13.95h10v26h-8.5v-2.55q-1.07 1.15-2.87 2.23-1.8 1.07-5.08 1.07m32.66 9.75h-9.95v-36.5h8.5v2.55q1.35-1.55 3.52-2.42 2.16-.88 4.78-.88 3.65 0 6.57 1.67 2.91 1.66 4.6 4.75 1.68 3.08 1.68 7.33 0 2.95-.96 5.45t-2.71 4.37q-1.75 1.86-4.14 2.9-2.39 1.03-5.24 1.03-1.82 0-3.5-.5-1.67-.5-3.15-1.55Zm5-18.25q1.43 0 2.57-.63 1.13-.64 1.78-1.82.65-1.17.65-2.8 0-1.62-.66-2.8-.66-1.17-1.8-1.81t-2.54-.64-2.53.64q-1.14.64-1.8 1.81-.67 1.18-.67 2.8 0 1.63.65 2.8.65 1.18 1.79 1.82 1.14.63 2.56.63m54.05 7.74h-23.35v-35h10.1v25.8h13.25Zm14.54.01h-10v-26h10Zm-5-29.35q-2.32 0-4.03-1.41-1.72-1.41-1.72-3.89 0-2.47 1.72-3.88 1.71-1.42 4.03-1.42 2.33 0 4.04 1.42 1.71 1.41 1.71 3.88 0 2.48-1.71 3.89t-4.04 1.41m21.25 29.35h-10v-26h10v2.4q1.35-1.62 3.22-2.38 1.86-.77 3.98-.77 3.75 0 6.14 1.45t3.53 3.78q1.13 2.32 1.13 4.97v16.55h-10v-13.4q0-2.07-.96-3.21t-2.99-1.14q-1.3 0-2.2.55t-1.37 1.54q-.48.99-.48 2.26Zm36.6.74q-4.37 0-7.65-1.72-3.27-1.73-5.08-4.83-1.82-3.1-1.82-7.25 0-3.02 1.07-5.53 1.06-2.52 3-4.34 1.93-1.83 4.57-2.83t5.81-1q3.55 0 6.32 1.25 2.76 1.25 4.56 3.49t2.45 5.25-.08 6.56h-18.75q.1 1.03.87 1.8.76.78 2.03 1.22 1.28.43 2.9.43 2.38 0 4.43-.55t4.07-1.75l2.9 6.6q-1.15.88-3.12 1.6-1.98.73-4.23 1.17-2.25.43-4.25.43m-4.95-17.45h8.7q0-1.35-1.15-2.2t-3-.85q-1.9 0-3.16.85t-1.39 2.2m33.19 17.4q-3.88 0-6.99-.88-3.11-.89-5.46-2.57l2.9-6.7q2.3 1.3 4.81 2.08 2.51.77 4.64.77 1.62 0 2.44-.33.81-.34.81-1.02 0-.57-.78-.81-.77-.24-3.17-.59-5.48-.8-8.04-2.95t-2.56-5.9q0-2.67 1.47-4.65 1.48-1.97 4.08-3.06t6-1.09q3.3 0 6.27.87 2.98.86 5.08 2.33l-2.8 6.7q-1.13-.77-2.53-1.36t-2.87-.91q-1.48-.33-2.8-.33-1.43 0-2.26.32-.84.31-.84.88 0 .55.66.83.66.27 3.14.77 5.85 1.15 8.27 3.09 2.43 1.94 2.43 5.46 0 2.73-1.51 4.77-1.52 2.03-4.19 3.16-2.68 1.12-6.2 1.12"/></g></g><rect width="71.912" height="71.912" x="616.519" y="-416.685" fill="#fff" rx="10" ry="10" transform="matrix(.96 0 0 .96 154.6 400)"/></g><path fill="transparent" stroke="transparent" d="M720 0h560v69H720z"/></g></svg>